<svg width="24" height="24" viewBox="0 0 24 24" fill="none" xmlns="http://www.w3.org/2000/svg">
<path d="M12 21C16.9706 21 21 16.9706 21 12C21 7.02944 16.9706 3 12 3C7.02944 3 3 7.02944 3 12C3 16.9706 7.02944 21 12 21Z" stroke="white" stroke-width="2" stroke-linecap="round" stroke-linejoin="round"/>
<path d="M4.64844 17.1932L5.74323 16.5323C5.85321 16.4659 5.94429 16.3724 6.00774 16.2607C6.0712 16.149 6.1049 16.0229 6.10562 15.8944L6.12463 12.5073C6.12543 12.3658 6.16624 12.2274 6.24236 12.1081L8.10261 9.19273C8.15759 9.10656 8.22961 9.03254 8.31424 8.97521C8.39887 8.91788 8.49432 8.87846 8.59474 8.85936C8.69516 8.84026 8.79842 8.84189 8.89818 8.86415C8.99795 8.88641 9.09211 8.92883 9.17489 8.9888L11.0176 10.3239C11.1737 10.4369 11.3673 10.4856 11.5583 10.4597L14.5096 10.06C14.6906 10.0355 14.8565 9.94578 14.976 9.80765L17.0533 7.40757C17.1794 7.26187 17.2446 7.07322 17.2353 6.88074L17.1258 4.60229" stroke="white" stroke-width="2" stroke-linecap="round" stroke-linejoin="round"/>
<path d="M17.5376 19.0953L16.5315 18.0872C16.4374 17.9929 16.3198 17.9254 16.191 17.8915L14.1793 17.3636C14.0007 17.3168 13.8457 17.2057 13.7439 17.0517C13.6421 16.8977 13.6007 16.7115 13.6276 16.5289L13.8512 15.0105C13.8701 14.8824 13.9218 14.7613 14.0014 14.659C14.081 14.5568 14.1857 14.477 14.3053 14.4272L17.1601 13.2407C17.2919 13.1859 17.4367 13.1698 17.5774 13.1945C17.718 13.2191 17.8487 13.2834 17.9541 13.3798L20.288 15.5143" stroke="white" stroke-width="2" stroke-linecap="round" stroke-linejoin="round"/>
</svg>
